<svg width="132" height="51" viewBox="0 0 132 51" fill="none" xmlns="http://www.w3.org/2000/svg">
<path d="M27.951 43.0641V34.1346H30.1173V41.1856H33.5656V43.0641H27.951Z" fill="#1E5779"/>
<path d="M68.3193 43.0641L67.6279 41.3121H64.1774L63.5224 43.0641H61.1806L64.9201 34.1346H67.0093L70.7102 43.0641H68.3193ZM65.9262 36.5192L64.7938 39.5837H67.035L65.9262 36.5192Z" fill="#1E5779"/>
<path d="M105.8 40.465C105.8 40.9518 105.704 41.3635 105.511 41.6938C105.318 42.0261 105.061 42.2921 104.743 42.4936C104.424 42.6952 104.06 42.841 103.653 42.929C103.246 43.0169 102.829 43.0619 102.401 43.0619H98.8496V34.1325H102.399C102.743 34.1325 103.094 34.1689 103.456 34.2397C103.816 34.3104 104.143 34.4327 104.439 34.6064C104.732 34.7779 104.972 35.0117 105.156 35.3055C105.34 35.5993 105.432 35.9745 105.432 36.427C105.432 36.9224 105.297 37.332 105.029 37.6558C104.76 37.9796 104.409 38.2133 103.972 38.3549V38.3806C104.225 38.4235 104.46 38.5007 104.683 38.6143C104.905 38.728 105.098 38.8738 105.263 39.0497C105.427 39.2255 105.556 39.4314 105.652 39.6673C105.751 39.9074 105.8 40.1712 105.8 40.465ZM103.358 36.7208C103.358 36.4184 103.242 36.1975 103.011 36.0582C102.78 35.9188 102.437 35.8501 101.986 35.8501H100.928V37.6922H102.086C102.489 37.6922 102.801 37.6107 103.024 37.4456C103.246 37.2805 103.358 37.0403 103.358 36.7208ZM103.647 40.2634C103.647 39.8946 103.507 39.6372 103.231 39.4936C102.955 39.3499 102.585 39.2791 102.125 39.2791H100.928V41.3228H102.137C102.304 41.3228 102.48 41.3078 102.66 41.2777C102.84 41.2477 103.004 41.1962 103.15 41.119C103.296 41.044 103.415 40.9368 103.507 40.7974C103.599 40.6623 103.647 40.4821 103.647 40.2634Z" fill="#1E5779"/>
<path d="M105.708 0.404663H101.968V30.1695H105.708V0.404663Z" fill="#1E5779"/>
<path d="M86.4089 26.4682H98.3445V30.1695H82.6715V0.404663H86.4089V26.4682Z" fill="#1E5779"/>
<path fill-rule="evenodd" clip-rule="evenodd" d="M23.3553 50.3337C46.7343 50.3337 58.0138 26.0152 59.5896 22.328L72.4154 22.3397C74.01 26.0665 85.2903 50.3337 108.645 50.3337C130.399 50.3337 132 32.2903 132 29.1702C132 21.6989 126.516 15.1734 118.898 15.4221C111.468 15.6645 109.501 21.4673 109.501 24.2658C109.501 27.2252 111.404 30.1802 114.809 30.1802C117.917 30.1802 119.497 27.8964 119.315 25.8999C119.23 24.9692 118.564 23.4488 116.725 23.4488C115.484 23.4488 115.006 24.5146 115.03 25.1086C115.056 25.7755 115.599 26.2623 116.072 26.2623C116.342 26.2623 116.836 26.1465 116.832 25.5932C116.828 25.04 116.389 25.0764 116.389 25.0764C116.389 25.0764 116.764 25.115 116.794 25.471C116.813 25.7155 116.712 26.1722 116.117 26.1722C115.334 26.1722 115.116 25.3938 115.139 25.0121C115.184 24.253 115.993 23.5946 116.744 23.6182C118.894 23.6825 119.21 25.7669 118.849 26.9378C118.174 29.1166 115.89 29.94 114.122 29.6355C112.763 29.4018 110.057 28.2588 110.057 24.446C110.057 17.6245 116.351 16.1191 119.384 16.059C124.545 15.9561 131.172 20.5559 131.172 29.1251C131.172 31.4347 130.292 48.7275 108.463 48.7275C89.056 48.7275 77.9737 26.2301 76.3612 22.7176C74.7488 19.2051 72.8529 13.8739 71.7634 10.9274C70.7916 8.29836 68.1181 0.404663 68.1181 0.404663H63.9911C63.9911 0.404663 61.0864 8.69508 60.0547 11.4571C59.1419 13.9044 56.4998 20.5996 55.8208 22.3179C55.2183 23.6975 44.0071 48.7275 23.5373 48.7275C1.70814 48.7275 0.830525 31.4347 0.830525 29.1251C0.830525 20.556 7.4576 15.9561 12.6184 16.0591C15.6515 16.1191 21.9447 17.6245 21.9447 24.446C21.9447 28.2588 19.2391 29.4018 17.8798 29.6355C16.1118 29.94 13.8278 29.1166 13.1536 26.9378C12.7918 25.767 13.1086 23.6826 15.2577 23.6182C16.009 23.5946 16.8181 24.253 16.8631 25.0121C16.8866 25.3938 16.6683 26.1723 15.8849 26.1723C15.2898 26.1723 15.1892 25.7155 15.2085 25.471C15.2384 25.115 15.613 25.0764 15.613 25.0764C15.613 25.0764 15.1742 25.04 15.1699 25.5933C15.1656 26.1465 15.6601 26.2623 15.9298 26.2623C16.4029 26.2623 16.9466 25.7755 16.9723 25.1086C16.9958 24.5146 16.5185 23.4488 15.277 23.4488C13.4382 23.4488 12.7725 24.9692 12.6869 25.8999C12.505 27.8964 14.0847 30.1802 17.1927 30.1802C20.5983 30.1802 22.5012 27.2252 22.5012 24.2658C22.5012 21.4673 20.5341 15.6645 13.1043 15.4222C5.48404 15.1691 0 21.6947 0 29.1659C0 32.2903 1.60112 50.3337 23.3553 50.3337ZM61.1806 18.671H70.6653L65.9433 5.24038L61.1806 18.671Z" fill="#1E5779"/>
<path d="M27.9853 0.404663H37.1639C38.8763 0.404663 40.5887 0.685585 42.3012 1.24528C44.0136 1.80713 45.5612 2.6885 46.9461 3.89367C48.331 5.09885 49.4505 6.64071 50.3067 8.51709C51.1629 10.3956 51.5911 12.6516 51.5911 15.285C51.5911 17.8347 51.1629 20.0435 50.3067 21.907C49.4505 23.7705 48.331 25.3124 46.9461 26.5304C45.5612 27.7506 44.0136 28.6599 42.3012 29.2624C40.5887 29.865 38.8763 30.1653 37.1639 30.1653H27.9853V0.404663ZM31.7248 26.5111H36.4083C38.0201 26.5111 39.5099 26.2581 40.8841 25.7541C42.2562 25.2502 43.4399 24.5211 44.4331 23.5689C45.4285 22.6168 46.2012 21.4395 46.7556 20.037C47.31 18.6367 47.5861 17.052 47.5861 15.2871C47.5861 13.4364 47.3079 11.8131 46.7556 10.4106C46.2012 9.01031 45.4263 7.83945 44.4331 6.90018C43.4378 5.96092 42.2541 5.24682 40.8841 4.75574C39.512 4.26466 38.0201 4.02019 36.4083 4.02019H31.7248V26.5111Z" fill="#1E5779"/>
</svg>
